<?xml version="1.0" encoding="UTF-8"?>
<svg id="Layer_2" data-name="Layer 2" xmlns="http://www.w3.org/2000/svg" viewBox="0 0 30.86 8.86">
  <defs>
    <style>
      .cls-1 {
        fill: #231f20;
      }

      .cls-2 {
        fill: #ed2024;
      }
    </style>
  </defs>
  <g id="Layer_1-2" data-name="Layer 1">
    <g>
      <polygon class="cls-1" points="0 8.71 2.09 8.71 2.09 5.4 5.83 5.4 5.83 3.7 2.09 3.7 2.09 1.9 6.05 1.9 6.05 .19 0 .19 0 8.71"/>
      <path class="cls-1" d="M11.73,2.54c-.49-.28-1.07-.43-1.75-.43s-1.26.14-1.76.43-.89.68-1.17,1.18c-.28.5-.42,1.09-.42,1.77s.14,1.27.42,1.78c.28.5.67.9,1.18,1.18.5.28,1.09.42,1.76.42.81,0,1.5-.18,2.06-.53.57-.36.94-.87,1.12-1.54l-2.06-.12c-.08.25-.21.43-.4.53-.18.11-.41.16-.68.16-.36,0-.65-.11-.88-.33-.23-.22-.35-.55-.38-1h4.49v-.38c0-.73-.13-1.36-.4-1.88-.26-.53-.64-.93-1.13-1.22ZM8.77,4.85c.04-.4.17-.71.39-.94.22-.22.49-.34.82-.34.34,0,.62.11.84.32.22.21.33.53.35.95h-2.4Z"/>
      <path class="cls-1" d="M16.55,7.09c-.1-.09-.14-.24-.14-.44V.19h-2.06v6.68c0,.65.16,1.12.48,1.4s.77.43,1.34.43h1.19v-1.49h-.4c-.18,0-.31-.04-.41-.13Z"/>
      <rect class="cls-1" x="18.14" width="2.14" height="1.54"/>
      <rect class="cls-1" x="18.18" y="2.26" width="2.06" height="6.46"/>
      <polygon class="cls-1" points="25.61 5.45 27.84 2.26 25.64 2.26 24.4 4.21 23.12 2.26 20.96 2.26 23.2 5.45 20.92 8.71 23.12 8.71 24.43 6.66 25.73 8.71 27.89 8.71 25.61 5.45"/>
    </g>
    <rect class="cls-2" x="28.54" y="6.56" width="2.32" height="2.19"/>
  </g>
</svg>