<?xml version="1.0" encoding="UTF-8"?>
<svg id="Layer_2" data-name="Layer 2" xmlns="http://www.w3.org/2000/svg" viewBox="0 0 669.11 684.79">
  <defs>
    <style>
      .cls-1 {
        fill: #2a2826;
      }

      .cls-2 {
        fill: #c7c7c5;
      }

      .cls-3 {
        fill: #f2f2f2;
      }
    </style>
  </defs>
  <g id="Layer_1-2" data-name="Layer 1">
    <g>
      <path class="cls-1" d="M570.21,520.37c-11.9,37.34-20.22,82.03-20.68,121.75l-5.87,2.15c2.24-26.71-8.32-52.03-5.67-79.96l8.24,49.29c11.25-59.49,17.9-120.26,65.79-163.06-25.59-19.19-69.42-33.62-97.69-45.01-13.74-6.39-43.81-20.58-57.1-27.24,7.25,35.08,3.92,73.01,6.28,108.19-5.08,21.17-52.28-24.85-61.16-30.65-17.86,19.61-28.62,34.59-50.88,49.37-13.86,65.26-13.76,112.78-13.18,179.46-1.53.39-2.52-.16-3.54-.41,2.01-21.5.54-69.63,2.06-90.85,1.54-13.46,9.31-75.84,12.48-87.81-43.72,19.73-43.19,33.56-46.93,76.82-4.04,30.97-3.61,69.61-3.5,101.07-2.68.56-5.24.4-7.69-.16-.63-41.25,1.02-85.78,6.93-126.8.23-12.74,8.05-24.3,9.5-36.11-4.84-7.07-11.34-12.87-18.08-18.73-12.22-10.61-11.55-14.11-28.18-21.92-20.55-9.65-14.59-10.7-28.12-29.09-13.4,10.71-24.68,45.51-42.3,44.92-3.16-37.64,16.09-81.05,23.55-118.35-23.42,12.4-56.46,28.22-81.18,37.57-22.9,10.24-57.37,21.32-76.7,37.66,9.17,10.61,17.48,34.82,19.51,48.16-6.38-14.91-9.81-33.89-20.82-46.82-29.72,32.03-40.02,76.44-50.81,117.45-17.65-7.82,22.14-89.44,30.55-103.71,30.82-47.78,94.58-54.78,142.67-80.87,13.82-6.77,27.28-12.61,40.46-20.99,0,0,12.93-28.09,12.93-28.09-10.02-14.52-16.74-30.39-19.26-47.96-26.37-4.89-18-16.44-25.81-39.79-4.3-9.55-5.74-19.79-4.03-30.11s-7.54-21.34-.09-37c2.84-5.97,8.7-8.55,15.02-5.97-26.07-233.68,281.17-237.84,253.74.56,19.04-5.63,20.06,19.47,15.75,31.63-4.54,13.79,5.09,15.7-7.33,47.45-2.6,6.64,2.6,27.3-17.14,31.53-1.71.37-5.69.82-6.17,3.16-10.61,44.11-13.98,24.45,10.89,64.18,0,0,7.34,12.78,7.34,12.78,17.24,8.99,34.1,16.92,51.87,24.36,28.31,13.01,63.8,23.95,90.78,38.96,14.64,8.06,28.71,17.96,37,32.84,9.41,17.01,48.5,95.31,31.09,106.67-8.48-36.74-23.4-91.7-50.54-119.26-22.17,15.99-35.57,43.56-43.95,68.75ZM222.96,67.79c-19.69,32.15-17.89,113.64-18.1,113.22,3.21,6.42,8.14,9.05,8.07,8.63,5.83,53.22-6.19,90.15,20.55,138,9.8,16.61,25.88,28.76,39.23,41.91,63.55,56.68,157.52-21.77,157.88-94.92,2.02-29,11.4-67.07,10.43-80.02-.1-1.29.91-1.48,1.55-2.6,1.24-2.17-.06-5.08-.5-6.8,6.74-53.07-.13-120.02-46.5-153.46-50.8-45.02-142.29-24.08-172.6,36.04ZM186.76,199.62c.79,6.82,2.99,14.04,2.67,21.09-2.38,12.69,3.05,26.49,9.28,38.15-2.87-3.77-5.66,23.63,11.89,22.78-1.38-6.79-.09-29.86-5.78-35.11,5.72-.44,1.67-7.88,2.15-11.71-2.86,3.48-.6,6.88-1.44,11.62-6.89-11.43,2.79-16.55-.84-24.45l-8.46-18.42c-4.03,4.66-.59,11.58-5.16,14.33,1.17-7.11,5.85-16.69-2.31-21.06-.78-13.36,16.09,11.02,16.72,15.07,4.57-21.99-21.52-47.79-18.71-12.3ZM459.38,194.63c-7.08,8.07-5.64,4.84-3.71,17.99-.1.78.27,1.91-1.09,2.13-.61-4.75-.58-6.76-2.74-11.15l-9.79,21.27c4.58,7.39,5.91,16.72-.37,23.15,1.67-5.71,3.33-10.6-.45-15.4-.55,16.95-3.1,31.98-4.28,49.3,6.25-.26,11.02-3.67,12.63-9.04.65-2.16,3.14-17.15.41-16.02,3.21-7.95,7.91-15.43,7.73-24.17.96-.06.57-1.35.54-2-.29-5.08.23-10.04-.37-14.99,2-12.31,4.52-17.95,2.77-26.98.35-4.61-3.38-7.76-7.7-5.21-10.33,5.76-11.24,18.37-10.92,28.55,2.86-4.89,12.21-22.66,17.33-17.45ZM413.91,385.41c-13.52,41.27-59.44,72.1-68,114.37,19.39-10.42,35.51-29.21,49.58-46.75-10.66-7-17.28,3-22.17,1.02,10.55-7.27,21.61-13.43,33.27-3.53,13.27,8.94,32.98,28.86,49.1,32.27-2.87-36.84,4.7-87.44-13.43-120.88,0,0-18.29-29.42-18.29-29.42.5,15.79-4.68,39.34-10.05,52.92ZM239.81,351.97c2.75,16.94,10.75,43.6,12.33,61.18,4.22,52.31,45.1,40.98,65.18,98.43,7.47-12.54,18.56-20.52,26.81-31.58,9.27-12.43,15.48-26.33,26.11-37.99,22.3-28.21,45.91-63.78,45.55-101.97-50.22,69.73-122.08,76.72-176.47,7.35-.52,1.58.32,3.13.5,4.58ZM226.65,364.8c-11.98,39.13-24.63,80.02-29.33,120.87l24.99-31.96c.41-.89,1.03-1.15,1.2-1.72,23.56-19.5,15.61,5.98,33.24,17.57,22.19,8.1,38.88,29.95,56.07,45.25-53.14-94.05-57.29-15.02-80.21-165.39l-5.97,15.37ZM328.77,505.75c-2.87,2.21-5.2,5.05-6.96,8.6,3.21-2.64,6.54-4.23,9.94-7.35,2.59-2.38,8.81.85,9.78-15.76-5.11,4.32-8.94,8.96-12.77,14.5Z"/>
      <path class="cls-1" d="M90.61,556.05c2.74,26.48,6.5,52.75,11,78.98-12.63-.41-17.01-95.18-15.08-108.89l.99-.03,3.1,29.94Z"/>
      <path class="cls-1" d="M327.29,530.33c15.86,5.62,3.44,25.92-9.86,17.06-6.03-8.75-.89-19.78,9.86-17.06ZM321.25,533.62c-7.26,4.22-.98,16.2,6.45,11.38,7.33-4.59,1.24-15.74-6.45-11.38Z"/>
      <path class="cls-2" d="M569.97,521.28c.02-.44.18-1.54.85-1.2-.13.44-.11,1.57-.85,1.2Z"/>
      <path class="cls-2" d="M221.19,71.7c-.6-1.93,1.76-2.97,2.38-4.2,2.76.68-.14,5.2-2.38,4.2Z"/>
      <path class="cls-3" d="M463.74,473.2c0-.32.25-.72.18-1.03,1.57.02,1.22,1.27-.18,1.03Z"/>
      <path class="cls-2" d="M461.44,189.44l-.16-1c.28.24.04.75.16,1Z"/>
      <path class="cls-3" d="M461.28,188.45c.54,1.67.45,4.14.1,5.86-6.87-4.82-15.04,11.1-18.73,17.49-.32-10.19.59-22.8,10.92-28.56,4.32-2.54,8.05.59,7.7,5.21Z"/>
      <path class="cls-2" d="M373.26,158.82c2.2,1.3-20.87,12.05-11.9,14.64-1.58.4-3.21,1.73-4.95,2.39,2.51,1.63,3.92-1.11,6.91-.03-4.81,2.48-9.4,11.1-12.25,10.76-21.21,9.06.44,39.03-1.32,58.8-1.27,4.99.47,10.64,6.57,10.16-.59,4.38-2.22,7.33-7.73,9.78,9.91,3.25,14.13-7.81,12.67-15.98,9.03,3.7,14.57,14.53,23.44,19.67,5.32,4.89,18.69,24.91,10.47,29.42,1.6-9.64-4.09-18.64-12.06-22.85-.03-3.34-14.71-14.02-18.78-16.96-3.26,2.21-3.52,6.67-6.43,8.1-9.98,3.08-30.28,18.49-40.61,9.74-13.97-8.56-27.37-6.49-15.6-11.47-4.69-1.32-7.77-3.53-8.34-7.61,7.19-2.92,8.79-11.63,19.82-4.65,10.18,9.22,20.31,2.54,29.61-3.75,3.79-25.99-14.61-48.46.59-76.41-4.62,1.9-4.77,6.39-6.94,9.87-.97-7.56,5.3-15.31,10-20.88,3.11,3.84,16.4-1.46,26.84-2.74ZM350.27,258.13c-3.78-4.88-10.89-2.62-13.79,1.41-5.32,8.29-18.65,9.27-23.87.44-2.64-4.15-8.23-6.57-12.49-3.8-7.34,6.77,7.09,5.17,11.49,8.93,15,12.64,21.1-.35,35.11-3.32,1.19,0,4.84-1.98,3.54-3.66Z"/>
      <path class="cls-1" d="M373.26,158.82c-10.44,1.27-23.72,6.58-26.84,2.74-.09-4.27,1.74-9.9,6.67-11.25,23.23-6.63,55.3-4.95,65.86,20.46-17.59-12.05-24.96-15.56-45.69-11.94Z"/>
      <path class="cls-1" d="M284.32,172.68c2.36,1.73,4.91,1.51,6.7,3.47l-6.84-.17c4.75,2.56,10.82,7.42,11.29,12.78-4.11-2.3-7.08-5.95-12.66-7.29-1.31,15.16-21.52,17.22-23.26,1.18-5.03,2.44-15.46,5.82-15.64,11.48l-8.7-.28c14.79-14.48,27.58-23.03,49.1-21.16Z"/>
      <path class="cls-1" d="M351.07,186.58c2.85.34,7.44-8.28,12.25-10.76-2.99-1.08-4.4,1.66-6.91.03,18.93-9.93,41.76,2.36,55.77,17.6-5.24,5.65-12.17-8.27-23.23-10.48-3.96,16.08-20.66,13.12-24.11-1.67-5.16.32-14.45,11.64-13.77,5.28Z"/>
      <path class="cls-1" d="M286.21,299.64c11.23,3.85,24.77-1.28,35.24,4.82,5.16,3,6.23-3.4,20.81-3.4,7.03-.07,13.25-.82,19.78-.71.7,0,2.18.2,2.25-.8,4.71.06,12.25-8.2,15.83-1.95.16.48.05.93-.66,1.25l-15.03,5.56c-8.69,3.21-25.79-1.16-34.53,4.34-3.06,1.92-6.59,2.19-9.81.53-13.47-6.92-24.07,1.97-44.86-9.05-2.46-1.3-5.05-1.53-7.88-.9-.89-5.81,6.38-5.17,9.87-2.8,2.83,2.39,6.2,2.18,8.98,3.13Z"/>
      <path class="cls-2" d="M341.42,341.28c-9.4.15-19.83-1.01-29.13.09-.04-4.58-11.41-3.38-14.27-16.2,12.8,4.86,43.67,4.82,56.25-1.17-1.87,8.35-7.35,13.19-14.95,14.76,1.2,1.49,2.41,1.35,2.1,2.52Z"/>
      <path class="cls-2" d="M301.41,162.19c3.01.43,1.95,4.4,3.64,6.53,1.31,1.25,8.1,5.69,3.23,6.74-.87-1.35-.69-3.41-3.24-3.99,2.8,9.16,8.42,16.15,2.47,25.19-4.41-3.71-1.79-11.96-12.4-10.94-3.65-3.35-5.98-7.9-10.94-9.74l6.84.17c-1.79-1.97-4.34-1.75-6.7-3.47,1.08-1.42,3.14-.93,5.46-2.4-2.62-5.97-12.73-7.84-11.47-10.92,4,.85,21.58,4.95,23.1,2.82Z"/>
      <path class="cls-2" d="M358.3,300.37c-5,.04-10.41.68-16.04.68-14.59,0-15.66,6.41-20.81,3.4-10.47-6.1-24.01-.96-35.24-4.82,19.39-.81,21.63-10.88,35.52-1.77,2.57,1.68,6.12.06,8.4-1.4,8.97-5.78,13.23.15,26.08,2.23,1.28.21,2.19.6,2.09,1.68Z"/>
      <path class="cls-2" d="M288.35,247.47c.54,3.1-1.68,6.75-.77,9.79-2.12-.1-3.51,1.67-5.19,3.22-8.19,8.6-26.12,20.19-28.11,32.89-10.12-5.92,27.92-41.73,34.08-45.91Z"/>
      <path class="cls-1" d="M293.35,257.37c.56,4.08,3.65,6.29,8.34,7.61-5.97,4.45-12.51-1.66-14.11-7.72-.43-7.66,2.75-16.45,9.98-20.91-2.94,6.96-7.17,14.06-4.21,21.02Z"/>
      <path class="cls-1" d="M361.26,249.34c1.46,8.16-2.77,19.23-12.67,15.98,12.5-5.56,7.72-18.96,3.96-28.55,5.77,2.61,6.74,8.14,8.71,12.57Z"/>
      <path class="cls-1" d="M321.79,325.17c-6.77-.82-12.99.33-18.7-4.23,14.67,2.5,28.82,2.21,44.23-.62-7.41,5.26-16.32,4.39-25.53,4.85Z"/>
      <path class="cls-1" d="M254.27,293.38c1.86-7.24,6.67-15.82,13.77-17.91-8.1,12.16-12.76,14.78-9.12,32.48-2.8-3.85-5.7-9.16-4.65-14.57Z"/>
      <path class="cls-1" d="M341.42,341.28c-.74,2.8,3.03,1.81,4.74,4.06-13.75-3.28-27.35-3.33-41.95.31,10.68-7.8,24.93-3.75,37.22-4.37Z"/>
      <path class="cls-1" d="M383.11,275.58c0,.9,1.27,1.04,1.9,1.1,8.99,5.46,14.66,19.99,6.49,29.36,5.87-20.36-13.57-29.69-8.4-30.46Z"/>
      <path class="cls-2" d="M397.01,200.55c-8.78,7.06-22.45,7.1-31.08-1.19,10.48,3.46,19.79,3.99,31.08,1.19Z"/>
      <path class="cls-2" d="M278.91,201.45c-8.55,4.65-19.18,6.18-26.78.27,10.06,3.99,31.45-4.74,26.78-.27Z"/>
      <path class="cls-1" d="M337.29,198.12c-3.16-7.38-1.64-21.29,6.07-25.56-4.78,8.19-5.07,16.83-6.07,25.56Z"/>
      <path class="cls-2" d="M379.47,298.84c.71-.32.81-.77.66-1.25-1.35-4.13-7.38-1.44-9.95-.35,1.28-10.59,22.14-1.08,9.29,1.6Z"/>
      <path class="cls-1" d="M308.28,175.46c1.34,2.07,1.04,4.62,1,6.99-2.21-3.08-2.5-6.98-4.23-10.98,2.55.58,2.36,2.64,3.24,3.99Z"/>
      <path class="cls-2" d="M364.3,299.54c-.07,1-1.55.8-2.25.8-.89-1.59,1.49-2.77,2.25-.8Z"/>
      <path class="cls-1" d="M310.23,184.52c-.37-.28-.81-.61-.95-1.08.31.28.88.61.95,1.08Z"/>
      <path class="cls-2" d="M297.29,324.83c0,.65-1.01.65-1,0,0-.65,1.01-.65,1,0Z"/>
      <path class="cls-1" d="M301.41,162.19c-30.29-.21-41.2-14.19-71.07,8.27,5.18-10.06,14.66-19.71,25.82-21.88,9.17-1.78,52.36-4.74,45.25,13.61Z"/>
      <path class="cls-1" d="M303.28,319.83c0,.65-1.01.65-1,0,0-.65,1.01-.65,1,0Z"/>
      <path class="cls-1" d="M350.27,258.13c1.3,1.68-2.35,3.66-3.54,3.66-13.99,2.96-20.13,15.96-35.11,3.31-4.41-3.76-18.83-2.16-11.49-8.93,4.25-2.77,9.84-.34,12.49,3.8,5.22,8.83,18.55,7.85,23.87-.44,2.9-4.03,10.01-6.29,13.79-1.41Z"/>
      <path class="cls-3" d="M386.18,277.45c-.44-.11-1.53.11-1.16-.77.42.07.83.52,1.16.77Z"/>
    </g>
  </g>
</svg>