<?xml version="1.0" encoding="UTF-8"?>
<svg id="Layer_2" data-name="Layer 2" xmlns="http://www.w3.org/2000/svg" viewBox="0 0 422.16 439.2">
  <defs>
    <style>
      .cls-1 {
        fill: #202121;
      }

      .cls-2 {
        fill: #d7d7d6;
      }
    </style>
  </defs>
  <g id="Layer_1-2" data-name="Layer 1">
    <g>
      <path class="cls-1" d="M208.45,439.19c-32.67.01-56.41-3.59-87.54-14.45-4.08,6.41-12.04,7.89-18.47,4.24-7.76-7.34-17.24-12.6-22.74-22.57-7.36,1.78-20.37-11.4-24.38-16.15-25.5-12.81-40.82-38.34-53.14-63.07-13.33-20.34,38.04-78.74,55.54-90.02,8.85-14.93,19.83-28.84,36.29-35.95,25.5-9.87,56.26-10.21,71.02-35.59,1.32-1.26.59-4.1-.41-5.39-5.82-7.56-8.93-16.28-10.21-25.84-13.95-3.48-8.89-12.68-12.27-18.6-2.62-9.02-10.46-39.62,5.52-36.31-10.08-105.75,130.63-106.2,119.63.03,16.9-4.11,7.45,30.65,4.69,38.95-1.45,2.95,1.59,13.33-11.51,15.78-9.7,32.89-6.12,16.32,8.23,45.35,33.13,17.24,81.19,15.27,99.26,53.29,6.18,12.48,11.26,11.69,20.03,21.54,11.48,10.52,17.16,25.22,24.93,38.39,41.13,60.31-66.25,106.05-101.54,135.94,1.26-.75-7.01,11.68-19.29,5.82-4.2-2-3.81-6.72-7.75-5.74-24.86,5.99-50.22,10.57-75.9,10.36ZM169.65,20.47c-16.54,16.89-21.7,43.58-15.44,66.36.33-1.21.65-2.08,1.33-2.54.9,23.6-1.52,51.4,11.69,72.06,19.5,32.35,55.27,34.52,77.47,3.56,17.05-19.71,12.65-49.77,14.89-74.09.91.22.33,1.11,1.22,1.96,18.35-50.02-39.76-115.35-91.17-67.31ZM143.2,96.4c.03.32-.36,1.57.26,1.42.88,6.87-.69,11.86,2.65,16.97,4.03,6.18-.84,12.95,7.94,14.62,1.14-19.99-8-11.11-2.88-26.23-1.05-5.18-4.6-10.2-7.89-14.36,3.58-3.12,7.29,7.19,9.17,10.03,2.79-16.61-15.44-22.96-9.24-2.44ZM267.08,117.36c5.17-5.89,3.66-14.1,4.73-20.99,6.54-19.38-12.24-15.2-9.17,1.42,9.54-15.56,10.59-10.54,2,2.15-3.66,5.26,6.98,9.66-3.02,17.38l-.76,12.01c6.12-.1,7.11-7.94,6.22-11.97ZM261.72,115.41c3.52-2.6,3.18-6.59.82-10.11l-.82,10.11ZM152.76,114.92l-.35-8.23c-2.03,2.59-1.57,5.96.35,8.23ZM170.39,168.7c.14,2.32-.23,4.98,1.2,6.99-1.5,5.58,1.75,23.41,7.46,28.48,5.49,4.22,17.21,29.01,19.89,26.48,12.63-19.39,52.82-45.8,48.9-67.89-27.53,33.66-54.12,27.56-77.44,5.94ZM251.06,176.18c-17.89,31.76-59.77,49.37-61.51,89.4-5.01,43.07-7.64,119.16-3.13,161.37,31.32,1.53,60.27.11,89.8-10.2-8.2-22.96-8.48-21.53,10.98-36.26,2.46-14.46,4.77-28.82,12.3-41.49,4.54-8.58,24.49-42.95,7.53-42.29-7.49,7.06-15.48,13.74-26.14,16.54,16.66-10.6,32.39-21.92,25.49-43.21.35-21.28,3.2-46.52,19.95-61.48-17.2,21.24-22.4,51.41-16.01,77.99,2.11-2.25,3.02-5.48,5.66-6.31-12.04,18.09,19.32,33.62,33.47,38.62,5.48-5.28,10.98-14.01,17.93-15.8-2.87,4-6.56,5.37-8.67,10.61,8.31-3.55,17.71-6.66,26.66-4.12-.88.31-2.58-.33-3.13.47-.68.22-3.25-.33-3.46.51-.39.16-2.7-.24-2.5.5-20.96,1.5-32.37,21.61-38.32,39.46-.46,1.02,2.46.43,2.84.61-2.32,2.34-11.61,3.01-11.56,9.35,12.94,6.51,20.8,18,25.99,30.98,28.01-14.37,57.79-42.22,63.2-73.41-9.98-27.43-24.86-54.01-48.05-72.67-.28,1.92.17,3.19.24,5.16-18.41-52.22-58.69-44.83-101.51-64.84-3.18,31.39,10.6,62.09-29.06,21.95-3.9-3.74-9.89.58-11.92,3.23-2.58,3.37,1.59,6.46-1.83,8.65-22.43,15.21-25.76,14.33-1.51-2.52-1.04-6.19,4.27-11.03,9.35-13.54,11.86-3.06,18.21,15.51,29.24,18.23,2.13,2.69.72-7.12,1.15-7.44.37-9.97,1.6-21.32.18-31.43-.42-6.51-15.78-30.69-11.51-13.52.02,2.18-1.1,5.14-2.13,6.93ZM165.06,172.26c-9.94,11.28-15.83,32.1-20.6,46.48,6.56-4.89,11.34-12.14,17.27-16.41,4.8-3.47,6.19,4.79,9.44,8.16,9.96,6.49,18.17,15.26,23.34,26.09-2.65-20.12-29.55-32.87-27.48-56.88-.52-1.03.2-11.88-1.95-7.43ZM5.25,321.04c11.22,25.06,26.2,51.04,51.9,63.99,5.56-12.16,13.53-24.13,26.96-29.33-1.53-4.87-5.27-7.18-9.47-9,.77-.69,1.6-.38,2.55-.77-4.69-22.81-16.42-39.88-41.07-41.39,7.52-1.87,15.84.95,22.82,3.93-2.03-3.72-4.5-6.07-6.71-9.37,6.48,1.18,13.28,14.36,17.53,16.97,10.8-1.5,24-11.68,31.41-19.41-8.76-27.22-7.79-58.65-.04-85.95-1.27,11.49-5.65,24.99-4.18,38.16,2.29-1.1.98-4.97,2.74-5.15-3.12,23.44-.44,47.72,17.18,65.28-3.67-.44-4.9-3.52-8.18-5.19,31.85,103.64-10.27,116.05,73.98,122.93-3.19-38.87-2.02-80.24-.22-119.15,2.74-22.5.05-49.11,11.33-69.32-6.24-14.72-22.82-19.38-30.2-32.93-36.68,40-21.42,8.68-12.67-16.98-35.34,13.54-81.94,17.45-91.49,61.81-.45-2.1-.11-4.16-.05-6.98-15.69,7.75-58.34,61.84-54.13,77.86ZM99.3,363.8c7.88,8.55,6.87,8.68,18.85,7.74-2.34-22.68-10.81-46.05-15.36-68.28-8.66,7.19-18.01,14.27-29.11,17.49,5.63,12.71,6.18,23.94,15.71,34-.83-1.08,10.17,9.24,9.92,9.05ZM324.14,358.47c2.62-6.98,7.57-6.64,9.53-10.79,3.13-7.2,7.54-17.31,11.48-24.25-9.75-3.86-18.38-9.02-26.11-16.06-7.08,24.13-23.36,43.26-25.83,68.59,3.18.14,6-.16,8.61.56,7.98-3.77,14.17-12.82,22.33-18.04ZM358.34,313.8c0-.32-.5-.32-.5,0,0,.32.5.32.5,0ZM63.15,378.9c-10.78,8.81,5.88,17.63,13.24,22.54,5.3-12.54,11.86-22.56,24.29-29.21-3.98-4.36-10.86-10.88-15.28-14.7-9.28,2.99-19.6,11.88-22.25,21.37ZM328.27,396.45c1.48,3.57,3.96,6.62,4.9,10.84,6.41-3.13,13.96-9.89,19.74-13.89-2.66-12.83-12.73-25.73-25.27-31.6-4.79,4.41-13.4,10.59-17.72,15.41,7.1,3.47,13.96,12.73,18.35,19.24ZM102.52,423.23c7.54,7.87,11.43-.2,18-3.03,1.95-.25,5.01-4.06,4.4-5.96-4.68-12.35-3.57-24.81-6.4-37.8-17.8-2.28-30.36,5.75-37.17,22.53,5.02,10.75,13.85,19.61,25.11,23.61-1.18.82-2.63-.49-3.94.65ZM306,428.21c-1.37-.77-2.61.3-3.74-.69,11.37-3.89,21.34-11.32,26.12-22.76-4.67-9.01-9.69-16.74-17.46-22.82-3.97.45-17.85-3.39-20.41,1.14-4.68,4.89-22.24,12.95-13.22,21.57,3.68,3.7-.69,7.66,4.66,11.75,4.02,3.08.35,7.17,7.25,9.24,5.13,5.29,10.13,8.59,16.8,2.57Z"/>
      <path class="cls-2" d="M264.44,227.09c-7.39-.2-20.55-8.54-27.59-7.81-2.23,6.55-24.62,8.61-26.27,16.29-5.32,21.98-7.5,50.17-8.6,72.76,39.7,5.6,86.47,2.71,104.39-38.3,6.87,21.28-8.82,32.64-25.49,43.21,10.66-2.8,18.66-9.48,26.14-16.53,16.96-.71-3.02,33.79-7.53,42.29-7.53,12.67-9.84,27.03-12.3,41.49-19.6,14.93-19.15,13.14-10.98,36.26-29.54,10.34-58.47,11.7-89.8,10.2,0,0-1.27-14.01-1.27-14.01,1.08.85,2.36,1.42,3.72.99.61,1.56,1.7,2.95,3.43,3.03,11.86-5.06,6.08-2.45,8.67,8.41-3.51-22.54,27.77-.77,53.86-33.71-2.05,7.66-5.96,13.52-10.68,19.85,26.57-5.04,21.05-34.87,29.98-53.97,0,0,12.42-32.2,12.42-32.2-8.21,4.2-15.91,8.54-24.87,10.11l10.79-9.33c-21.15-2.97-49.79-7.97-70.87-11.83-1.88,26.38-.62,66.67-1.77,91.79-.65-32.91-1.13-57.78.44-92.42-3.48.81-12.93-2.37-10.15-5.59,4.48,4.65,5.83-.4,10.52-.91.45-7.21,4.77-59.02,9.31-73.16-5.05,1.67-9.02,5.25-12.64,8.45.06-1.1.72-2.44-.23-2.82.32-.68.78-1.87,1.45-2.34.79,1.42,2.55-1.02.55-.77.26-.67.84-1.45,1.44-1.92-.3,4.46,3.77-3.82,5.99-3.56,4.72-.4,15.1-9.3,19.77-11.57,3.42-2.18-.75-5.28,1.83-8.65,2.03-2.65,8.03-6.97,11.92-3.24,6.91,7.1,15.96,15.37,24.4,19.5Z"/>
      <path class="cls-2" d="M182.46,307.57s-.39,5.97-.39,5.97c-18.84,1.79-37.81,5.86-56.95,5.69,2.28,6.28,6.42,10.3,11.09,14.6-6.49-2.43-10.41-7.65-15.74-11.95,3.71,18.9,8.87,36.93,11.63,55.99,2.63,14.16,1.65,26.34,16.71,33.2-3.26-8.34-8.09-14.74-9.11-23.56,18.3,29.05,45.86,15.4,42.97,39.22-84.21-6.86-42.15-19.28-73.98-122.93,3.28,1.67,4.51,4.75,8.18,5.19-10.94-11.47-14.84-20.45-17.03-35.48,13.95,31.93,50.88,37.71,82.62,34.07Z"/>
      <path class="cls-2" d="M306,428.21c-6.69,6-11.65,2.76-16.8-2.57-6.9-2.07-3.22-6.16-7.25-9.24-5.36-4.1-.98-8.05-4.66-11.75-9.01-8.58,8.52-16.72,13.22-21.57,2.5-4.49,16.51-.76,20.41-1.14,7.77,6.08,12.79,13.82,17.46,22.83-4.78,11.42-14.75,18.88-26.12,22.75,1.13.98,2.38-.08,3.74.69ZM288.37,420.98c10.38,12.19,29.14-9.2,34.77-18.28.04-6.03-8.49-15.74-13.08-18.39-12.45-4-23.51,4.23-32.31,12.12-1.93,1.95-.61,5.83,1.11,7.42,3.17,2.93-.13,6.29,4.87,10.23,2.32,1.83,3.23,4.03,4.63,6.9Z"/>
      <path class="cls-2" d="M348.95,383.31c2.45,2.83,3.08,6.5,3.96,10.08-5.81,4.04-13.32,10.71-19.74,13.89-.14-5.03-8.5-10.54-1.81-12.98,6.44-2.49,11.58-8.86,17.59-11Z"/>
      <path class="cls-2" d="M190.41,233.06c-20.63-13.11-22.48-19.97-46.73-8.56,7.94-6.17,12.46-11.77,19.91-19.18,5.82,12.18,20.49,15.9,26.82,27.74Z"/>
      <path class="cls-2" d="M63.15,378.9c3.92,1.58,7.05,6.56,11.03,8.96,7.92,3.66,5.53,6.43,2.21,13.58-7.35-4.89-24.03-13.74-13.24-22.54Z"/>
      <path class="cls-2" d="M265.17,194.29c-2.2-1.23-3.21-3.68-3.72-5.61-3.04-.08-4.23-3.1-4.67-5.72-7.56-1.04-3.53-7.14-5.72-6.78,1.03-1.79,2.15-4.74,2.13-6.93-4.52-20.2,16.69,15.21,11.98,25.04Z"/>
      <path class="cls-2" d="M198.94,230.65c-2.49,2.78-14.52-22.41-19.89-26.48-5.62-4.99-9.1-23.02-7.46-28.48,3.48,20.1,12.85,33,27.35,54.96Z"/>
      <path class="cls-2" d="M385.37,309.53c-8.96-2.54-18.34.57-26.66,4.12,1.14-3.38,3.3-4.92,5.15-6.53,8.29.59,17.85-3.38,26.28,1.76-1.23,1.71-3.57,1.48-4.77.65Z"/>
      <path class="cls-2" d="M54.08,302c2.15,1.54,3.25,4.06,4.85,6.46-6.97-2.98-15.3-5.8-22.82-3.93-.53.49-5.36.09-4.36-1.08,6.72-4.75,15.39-.3,22.34-1.45Z"/>
      <path class="cls-2" d="M281.46,190.66c-2.62,1.41-7.52-1.13-9.98,1.04-3.63,5.33-2.45-3.07-2.38-6.05l12.36,5.01Z"/>
      <path class="cls-2" d="M309.81,200.73l-21.45.85c4.33-2.87,13.2-.28,17.06-2.41,1.53.35,2.99.7,4.39,1.56Z"/>
      <path class="cls-2" d="M261.72,115.41l.82-10.11"/>
      <path class="cls-2" d="M166.47,175.57c.68,1.52.36,2.81.54,4.13-1.6-.68-.76,5.95-2.23,8.05-.41-2.53-1.12-12.17,1.69-12.18Z"/>
      <path class="cls-2" d="M152.41,106.68l.35,8.23"/>
      <path class="cls-2" d="M340.77,351.89c.08-1.62,3.66-.98,5.58-.67-1.81.75-3.7.43-5.58.67Z"/>
      <path class="cls-2" d="M99.7,243.7l-.61-.08c.5-1.53.93-3.05,1.55-4.43.68,2.44-.65,3.5-.94,4.51Z"/>
      <path class="cls-2" d="M270.97,107.31c-.03-2.01.1-4.04.1-6.03,1.04,1.89.1,4.17-.1,6.03Z"/>
      <path class="cls-2" d="M181.14,338.56c-1.1.81.27-6.07.35-4.57-.03,1.53.46,3.25-.35,4.57Z"/>
      <path class="cls-2" d="M180.97,391c-.98-1.61-.3-3.7-.3-5.53.81,1.71.3,3.69.3,5.53Z"/>
      <path class="cls-2" d="M180.67,352.01c0-1.68-.68-3.61.32-5.04-.03,1.68.4,3.5-.32,5.04Z"/>
      <path class="cls-2" d="M181.62,326.58c-1.07-.19-.79-2.3.3-2.54l-.3,2.54Z"/>
      <path class="cls-2" d="M181.48,405.99c-1.27-.91-.31-2.24-.32-3.08.73.83.31,2.05.32,3.08Z"/>
      <path class="cls-2" d="M264.8,212.05c.14.74.28,1.56-.28,2.16-.92,0-.95-2.59.28-2.16Z"/>
      <path class="cls-2" d="M383.91,309.65c.36,1.23-1.23,1.02-1.68.35.26-.63,1.14-.31,1.68-.35Z"/>
      <path class="cls-2" d="M265.02,199.22c-.84-.53-.32-1.57.3-2.05.07.65.39,1.67-.3,2.05Z"/>
      <path class="cls-2" d="M166.42,172.29l-1.36-.03c.45-1.55,1.89-1.29,1.36.03Z"/>
      <path class="cls-2" d="M264.82,210.66c-.56.16-.5-1.18.01-1,0,0-.01,1-.01,1Z"/>
      <path class="cls-2" d="M379.86,310.09c.04.51-.74.4-1.08.41-.05-.5.75-.4,1.08-.41Z"/>
      <path class="cls-2" d="M264.44,221.57c.13.89-.73.52-1.07.08.35-.07.71-.12,1.07-.08Z"/>
      <path class="cls-2" d="M311.93,201.14c-.37-.07-.93.11-1.04-.4.33.02,1.1-.1,1.04.4Z"/>
      <path class="cls-2" d="M95.5,245.62c-.5.01-.48-.52,0-.5v.5Z"/>
      <path class="cls-2" d="M338.39,351.03c-.37,0-.6-.2-.44-.56.33-.12.37.34.44.56Z"/>
      <path class="cls-2" d="M271.07,100.27c0-.2-.08-.7.32-.54-.05.22-.05.49-.32.54Z"/>
      <path class="cls-2" d="M143.46,97.82c-.34.18-.36-.38-.34-.58.43-.16.31.37.34.58Z"/>
      <path class="cls-2" d="M204.02,230.19c.18-.16.36-.38.51-.57l-.51.57Z"/>
      <path class="cls-2" d="M201.43,233.13c.2-.18.41-.36.63-.5-.14.22-.45.33-.63.5Z"/>
      <path class="cls-2" d="M180.98,392.5c-.59.13-.61-.7-.01-.58,0,.19,0,.39.01.58Z"/>
      <path class="cls-2" d="M418.78,318.59c-.37.21-.32-.39-.36-.59.36-.18.34.37.36.59Z"/>
      <path class="cls-2" d="M358.34,313.8c0,.32-.5.32-.5,0,0-.32.5-.32.5,0Z"/>
      <path class="cls-2" d="M376.28,311.01c-.2-.36.35-.4.58-.41.2.38-.35.38-.58.41Z"/>
      <path class="cls-2" d="M403.23,319.57c-1.64,13.7-14.08,22.01-25.91,26.37,9.62-7.46,19.2-15.23,25.91-26.37Z"/>
      <path class="cls-2" d="M31.75,333.7c1.71,1.92,4.09,2.44,5.54,4.71-8.26-2.44-18.11-9.91-18.31-19.1l12.78,14.38Z"/>
      <path class="cls-2" d="M101.75,211.16c-1.08-.51-.4-1.93.52-2.75.66.98-.27,1.89-.52,2.75Z"/>
      <path class="cls-2" d="M39.16,338.77c0,.32-.5.32-.5,0,0-.32.5-.32.5,0Z"/>
      <path class="cls-1" d="M196.96,75.4c-10.66,2.15-22.91-6.95-33.12,2.97.86-12.38,34.27-15.78,33.12-2.97Z"/>
      <path class="cls-1" d="M240,73.71c-5.33-3.29-33.71,9.56-21.14-4.11,7.97-4.23,31.22-1.52,29.83,7.6-.65.24-4.25-3.3-8.68-3.48Z"/>
      <path class="cls-1" d="M220.99,85.25c.86-.38,1.62-.97,2.22-1.71-1.27-.4-1.77.55-2.75.35,7.18-6.97,23.8-1.93,26.96,6.8-3.36-2.15-6.36-3.98-10.21-5.86.43,8.81-10.98,8.15-10.76-.16-2.67.93-4.67,2.64-7.21,4.65-.49-1.83,1.46-2.57,1.75-4.07Z"/>
      <path class="cls-1" d="M187.97,137.76c5.92,1.84,10.96-.4,18.9,3.08,5.53-2.66,12.97-1.67,18.15-3.06,5.78-.48,8.1-6.22,10.09-1.22-18.45,8.14-38.22,7.06-56.49.36,2.01-4.94,3.92-.01,9.35.84Z"/>
      <path class="cls-2" d="M232.47,73.77c-1.05,2.15-10.04,4.9-8.55,7.54-.95.81-2.38,1.4-3.46,2.58.98.19,1.48-.75,2.75-.35-5.08,2.64-9.87,4.05-10.01,12.29-5.96-15.01,4.95-22.07,19.27-22.06Z"/>
      <path class="cls-2" d="M196.96,75.4c2.29,6.16,7.13,12.9,2.92,20.1,1.63-9.6-14.97-12.77-6.83-11.82-2.23-2.89-6.72-7.36-11.18-8.72-.74-.29-1.4-.44-1.3-1.23,5.23-.69,11.62,4.59,16.39,1.67Z"/>
      <path class="cls-1" d="M218.07,123.28c-3.08-4.58-11.12,7.56-16.04,1.9-1.35-1.14-6.14-5.06-6.57-1.58-4.55,1.3-9.25-7.44-2.75-11.99,1.1,1.64-2.64,4.75-.11,8.16.4.54.78,2.32,1.64,1.74,6.18-5.97,11.12,8.2,17.46-.06,1.56-1.9,6.01-2.68,7.16.05,4.49-1.13,1.98-7.54.16-11.02,5.47,2.36,6.89,13.48-.94,12.81Z"/>
      <path class="cls-2" d="M209.14,157.76c-5.64-.05-14.62-.12-16.19-7.72,3.51.3,8.71,3.42,10.99.82,2.46,1.96,10.99,1.54,17.22-1.14-2.12,5.28-7.07,7.42-12.03,8.04Z"/>
      <path class="cls-2" d="M221.07,118.26c.43,1.12-1.23,1.14-.09,1.47-.08.78-1.59,2.33-2.14,1.76-3.84-5.63-8.2,3.12-12.59,2.46-5.34-.08-6.62-7.6-12.03-2.45-.85.59-1.23-1.2-1.64-1.74,7.58-7.57,9.49,4.38,18.58-.82,7.34-4.2,5.24-.11,9.9-.68Z"/>
      <path class="cls-2" d="M218.07,123.28c-8.3,8.69-15.2,5.84-22.61.32.22-3.52,5.34.5,6.56,1.59,4.93,5.66,12.96-6.49,16.04-1.91Z"/>
      <path class="cls-2" d="M221,138.23c-8.7,2.11-21.02,1.68-28.5.01,10.17-3.85,10.56-.51,13.65.37,4.54-1.84,10.23-2.94,14.85-.39Z"/>
      <path class="cls-2" d="M189.48,116.82c-2.49,4.78-10.33,6.96-11.46,11.4-.38-2.2-4.17,2.39-4.94,2.59.54-5.9,11.44-11.27,16.4-13.98Z"/>
      <path class="cls-2" d="M240.4,130.2c-2.26-1.13-3.22-2.86-4.87-4.65-1.18-.7-12.8-7.79-10.68-9.4,3.12,3.44,17.53,10.63,15.55,14.04Z"/>
      <path class="cls-1" d="M205.01,150.85c-3.14-.5-7.2.52-10.01-2.85,6.62,2.13,13.84,2.19,20.83.8.41-1.08.83-.16.82.67-3.8,1.43-7.77,1.36-11.64,1.38Z"/>
      <path class="cls-1" d="M236.9,127.3c4.17,2.96,7.17,8.37,2.9,13.01,1.04-8.46-.64-7.35-4.5-13.03.65-.12,1.11.01,1.59.03Z"/>
      <path class="cls-1" d="M178.02,128.21c-3.41,2.89-5.01,6.99-4.53,11.47-5.21-4.86,3.33-14.23,4.53-11.47Z"/>
      <path class="cls-1" d="M205.03,157.8c3.83.39,7.49-.85,10.5,2.13-6.03-1.25-11.53-.79-17.68.02,2.11-2.14,4.89-1.58,7.19-2.15Z"/>
      <path class="cls-2" d="M240.29,94.99c-2.44,2.82-13.42,2.54-14.28-1.42,4.76,1.99,9.13,1.19,14.28,1.42Z"/>
      <path class="cls-2" d="M187.58,93.98c-2.13,4.19-17.17,2.92-12.53.59,4.18,1.69,7.76,0,12.53-.59Z"/>
      <path class="cls-2" d="M166.85,88.79c-1.45,3.77,4.48-2.09,8.72-3.27.74,1.93-.41,2.13-1.82,2.51-1.61,2.63-12.21,4.51-6.91.76Z"/>
      <path class="cls-2" d="M183.09,80.85c-.76.55-1.69.5-2.61.36.1-1.07,2.39-1.37,2.61-.36Z"/>
      <path class="cls-2" d="M187.11,81.18c-.71.03-1.05-.07-1.67-.33-.13-.98,2.19-.75,1.67.33Z"/>
      <path class="cls-2" d="M189.55,138.21c-.49-.14-1.44.26-1.58-.45.5.07,1.42-.2,1.58.45Z"/>
      <path class="cls-1" d="M250.52,77.8c0,.41-.64.41-.63,0,0-.41.64-.41.63,0Z"/>
      <path class="cls-1" d="M195.07,88.79c0,.41-.64.41-.63,0,0-.41.64-.41.63,0Z"/>
      <path class="cls-2" d="M177.98,81.74c-.17-.3.39-.41.59-.4.2.39-.35.35-.59.4Z"/>
      <path class="cls-2" d="M240,73.71c-.22,0-.78-.02-.58-.38.21,0,.76.05.58.38Z"/>
      <path class="cls-2" d="M224.47,138.13c.11-.2.32-.33.54-.35.21.41-.32.34-.54.35Z"/>
      <path class="cls-1" d="M196.9,414.38c-3.68,6.77-12.07-1.36-5.8-5.03,3.18-1.6,6.75,1.76,5.8,5.03ZM191.53,410.62c-3.21,1.66-.55,5.8,2.04,4.62,3.31-1.33,1.21-6.29-2.04-4.62Z"/>
      <path class="cls-1" d="M197.5,307.54c-2.7,5.88-11.01-.02-6.17-4.34,2.92-2.54,7.43.65,6.17,4.34ZM193.28,308.53c3.19.29,3.99-3.87,1.24-4.68-3.03-1.35-5.19,4.46-1.24,4.68Z"/>
      <path class="cls-1" d="M201.11,414.58c-.48,3.56,1.11,6.86-.15,10.79-.49-5.89-2.24-14.74-.45-19.42.04,2.82.99,5.79.6,8.63Z"/>
      <path class="cls-1" d="M189.33,365.34c-4.23-4.27,3.2-10.36,6.24-5.28,2.52,3.82-2.71,8.53-6.24,5.28ZM191.53,359.7c-3.55,1.21-1.83,5.5,1.2,4.84,3.04-.33,2.17-5.81-1.2-4.84Z"/>
      <path class="cls-1" d="M200.5,255.08c-3.87,1.11-7.31-3.68-4.46-6.68,4.58-4.28,9.61,3.77,4.46,6.68ZM197.49,248.96c-2.65,1.84-.12,6.14,2.79,4.32,2.59-1.63.22-5.96-2.79-4.32Z"/>
      <path class="cls-2" d="M200.5,255.08c-.57,1.73-3.18,1.42-4-.53,1.29.46,2.63.71,4,.53Z"/>
      <path class="cls-2" d="M195.5,252.62c-.32.24-.44-.33-.46-.55.24.06.36.35.46.55Z"/>
      <path class="cls-1" d="M185.44,80.85c2.69.73,5.8.11,7.6,2.84-6.32-1.43,2.77,2.55.29,5.12-1.58-1.81-3.58-3.28-5.82-3.91.16,3.75-2.17,6.35-5.26,6.58-6.2.46-4.66-7.36-6.67-5.96-20.6,11.66-.03-7.16,9.87-4.67Z"/>
      <path class="cls-2" d="M191.53,410.62c3.25-1.67,5.35,3.29,2.04,4.62-2.59,1.18-5.25-2.96-2.04-4.62Z"/>
      <path class="cls-2" d="M193.28,308.53c-3.95-.23-1.79-6.03,1.24-4.68,2.75.81,1.96,4.97-1.24,4.68Z"/>
      <path class="cls-2" d="M191.53,359.7c3.38-.97,4.24,4.51,1.2,4.84-3.04.65-4.75-3.63-1.2-4.84Z"/>
      <path class="cls-2" d="M197.49,248.96c3.02-1.64,5.39,2.69,2.79,4.32-2.91,1.82-5.45-2.48-2.79-4.32Z"/>
    </g>
  </g>
</svg>